# AST/ASF file generated using VICON BodyLanguage
# -----------------------------------------------
:version 1.10
:name VICON
:units
  mass 1.0
  length 0.45
  angle deg
:documentation
   .ast/.asf automatically generated from VICON data using
   VICON BodyBuilder and BodyLanguage model FoxedUp or BRILLIANT.MOD
:root
   order TX TY TZ RX RY RZ
   axis XYZ
   position 0 0 0  
   orientation 0 0 0 
:bonedata
  begin
     id 1 
     name lhipjoint
     direction 0.570549 -0.739093 0.358072 
     length 2.41801 
     axis 0 0 0  XYZ
  end
  begin
     id 2 
     name lfemur
     direction 0.34202 -0.939693 0  
     length 7.44434  
     axis 0 0 20  XYZ
    dof rx ry rz
    limits (-160.0 20.0)
           (-70.0 70.0)
           (-60.0 70.0)
  end
  begin
     id 3 
     name ltibia
     direction 0.34202 -0.939693 0   
     length 7.60047   
     axis 0 0 20   XYZ
    dof rx
    limits (-10.0 170.0)
  end
  begin
     id 4 
     name lfoot
     direction 0.0909041 -0.249757 0.964032   
     length 2.03437   
     axis -90 7.62852e-016 20   XYZ
    dof rx rz
    limits (-45.0 90.0)
           (-70.0 20.0)
  end
  begin
     id 5 
     name ltoes
     direction 1.53547e-011 -4.2174e-011 1   
     length 1.02054   
     axis -90 7.62852e-016 20   XYZ
    dof rx
    limits (-90.0 20.0)
  end
  begin
     id 6 
     name rhipjoint
     direction -0.558096 -0.746754 0.361784   
     length 2.3932  
     axis 0 0 0  XYZ 
  end
  begin
     id 7 
     name rfemur
     direction -0.34202 -0.939693 0   
     length 7.3886   
     axis 0 0 -20   XYZ
    dof rx ry rz
    limits (-160.0 20.0)
           (-70.0 70.0)
           (-70.0 60.0)
  end
  begin
     id 8 
     name rtibia
     direction -0.34202 -0.939693 0   
     length 7.4839   
     axis 0 0 -20   XYZ
    dof rx
    limits (-10.0 170.0)
 end
 begin
     id 9 
     name rfoot
     direction -0.114619 -0.314914 0.942174   
     length 2.25127  
     axis -90 -7.62852e-016 -20   XYZ
    dof rx rz
    limits (-45.0 90.0)
           (-20.0 70.0)
  end
  begin
     id 10 
     name rtoes
     direction -1.53518e-011 -4.21881e-011 1   
     length 1.11821   
     axis -90 -7.62852e-016 -20   XYZ
    dof rx
    limits (-90.0 20.0)
  end
  begin
     id 11 
     name lowerback
     direction -0.00902269 0.996426 -0.0839821   
     length 2.25052   
     axis 0 0 0   XYZ
    dof rx ry rz
    limits (-20.0 45.0)
           (-30.0 30.0)
           (-30.0 30.0)
  end
  begin
     id 12 
     name upperback
     direction 0.0370973 0.999169 -0.0168941   
     length 2.24876   
     axis 0 0 0   XYZ
    dof rx ry rz
    limits (-20.0 45.0)
           (-30.0 30.0)
           (-30.0 30.0)
  end
  begin
     id 13 
     name thorax
     direction 0.0402726 0.998931 0.0227027   
     length 2.26408   
     axis 0 0 0   XYZ
    dof rx ry rz
    limits (-20.0 45.0)
           (-30.0 30.0)
           (-30.0 30.0)
  end
  begin
     id 14 
     name lowerneck
     direction -0.0733697 0.98508 0.155675   
     length 1.58204   
     axis 0 0 0   XYZ
    dof rx ry rz
    limits (-20.0 45.0)
           (-30.0 30.0)
           (-30.0 30.0)
  end
  begin
     id 15 
     name upperneck
     direction 0.0426554 0.993501 -0.105526   
     length 1.61222   
     axis 0 0 0   XYZ
    dof rx ry rz
    limits (-20.0 45.0)
           (-30.0 30.0)
           (-30.0 30.0)
  end
  begin
     id 16
     name head
     direction 0.020792 0.998384 -0.0528868  
     length 1.61527  
     axis 0 0 0   XYZ
    dof rx ry rz
    limits (-20.0 45.0)
           (-30.0 30.0)
           (-30.0 30.0)
  end
  begin
     id 17 
     name lclavicle
     direction 0.967109 0.155462 -0.201325  
     length 3.59357  
     axis 0 0 0   XYZ
    dof ry rz
    limits (-20.0 10.0)
           (0.0 20.0)
  end
  begin
     id 18 
     name lhumerus
     direction 1 -4.48968e-011 2.38195e-027   
     length 5.38154   
     axis 180 -30 -90   XYZ
    dof rx ry rz
    limits (-60.0 90.0)
           (-90.0 90.0)
           (-90.0 90.0)
  end
  begin
     id 19
     name lradius
     direction 1 -4.48961e-011 4.85371e-027   
     length 3.33312   
     axis 180 -30 -90   XYZ
    dof rx
    limits (-10.0 170.0)
  end
  begin
     id 20
     name lwrist
     direction 1 -4.48961e-011 4.76515e-027   
     length 1.66656   
     axis -3.27502e-015 90 90   XYZ
    dof ry
    limits (-180.0 0.0)
 end
  begin
     id 21 
     name lhand
     direction 1 -4.48951e-011 9.53074e-027   
     length 0.710789   
     axis -6.08098e-015 90 90   XYZ
    dof rx rz
    limits (-90.0 90.0)
           (-45.0 45.0)
  end
  begin
     id 22 
     name lfingers
     direction 1 -4.48953e-011 1.90613e-026   
     length 0.573057   
     axis -1.21619e-014 90 90   XYZ
    dof rx
    limits (0.0 90.0)
  end
  begin
     id 23
     name lthumb
     direction 0.707107 -6.34973e-011 0.707107   
     length 0.822798   
     axis -90 45 -9.86923e-015   XYZ
    dof rx rz
    limits (-45.0 45.0)
           (-45.0 45.0)
  end
  begin
     id 24 
     name rclavicle
     direction -0.9585 0.265289 -0.104398   
     length 3.42039  
     axis 0 0 0   XYZ 
    dof ry rz
    limits (-10.0 20.0)
           (-20.0 0.0)
  end
  begin
     id 25 
     name rhumerus
     direction -1 -4.48977e-011 2.21478e-027  
     length 5.16954   
     axis 180 30 90   XYZ
    dof rx ry rz
    limits (-90.0 60.0)
           (-90.0 90.0)
           (-90.0 90.0)
  end
  begin
     id 26 
     name rradius
     direction -1 -4.48967e-011 5.63677e-027   
     length 3.38287   
     axis 180 30 90   XYZ
    dof rx
    limits (-10.0 170.0)
  end
  begin
     id 27 
     name rwrist
     direction -1 -4.48967e-011 4.76501e-027   
     length 1.69144   
     axis -3.27502e-015 -90 -90   XYZ
    dof ry
    limits (-180.0 0.0)
  end
  begin
     id 28
     name rhand
     direction -1 -4.48902e-011 9.53292e-027   
     length 0.817967   
     axis -6.08098e-015 -90 -90   XYZ
    dof rx rz
    limits (-90.0 90.0)
           (-45.0 45.0)
  end
  begin
     id 29
     name rfingers
     direction -1 -4.49012e-011 1.90561e-026   
     length 0.659466   
     axis -1.21619e-014 -90 -90   XYZ
    dof rx
    limits (0.0 90.0)
  end
  begin
     id 30
     name rthumb
     direction -0.707107 -6.34944e-011 0.707107   
     length 0.946865   
     axis -90 -45 9.86923e-015   XYZ
    dof rx rz
    limits (-45.0 45.0)
           (-45.0 45.0)
  end
:hierarchy
  begin
    root lhipjoint rhipjoint lowerback
    lhipjoint lfemur
    lfemur ltibia
    ltibia lfoot
    lfoot ltoes
    rhipjoint rfemur
    rfemur rtibia
    rtibia rfoot
    rfoot rtoes
    lowerback upperback
    upperback thorax
    thorax lowerneck lclavicle rclavicle
    lowerneck upperneck
    upperneck head
    lclavicle lhumerus
    lhumerus lradius
    lradius lwrist
    lwrist lhand lthumb
    lhand lfingers
    rclavicle rhumerus
    rhumerus rradius
    rradius rwrist
    rwrist rhand rthumb
    rhand rfingers
  end

#!OML:ASF F:\twosubjects\two\wednesday\Session 1\Justin1.ASF
:FULLY-SPECIFIED
:DEGREES
67
root 4.33655 17.6985 11.1971 -176.389 0.761422 -180.642
lowerback 1.79466 -2.0447 -3.01674
upperback 1.00244 -2.68897 3.31166
thorax 0.326417 -1.34049 5.14606
lowerneck -18.9559 -2.27792 -9.99129
upperneck 21.9036 -0.628134 3.59846
head 10.1993 -0.538408 2.87836
rclavicle -1.59028e-014 1.74931e-014
rhumerus -35.5677 -12.7044 -78.7146
rradius 24.7794
rwrist -6.32951
rhand -12.1287 19.7021
rfingers 7.12502
rthumb 13.9329 -9.8111
lclavicle -1.59028e-014 1.74931e-014
lhumerus -32.1173 12.1569 82.0924
lradius 32.5224
lwrist -8.82687
lhand -0.412268 36.9011
lfingers 7.12502
lthumb 25.1954 65.258
rfemur -27.5717 0.808971 20.6739
rtibia 23.3206
rfoot 1.19987 -1.12719
rtoes 8.39527
lfemur 9.08316 -2.69082 -23.0555
ltibia 30.9654
lfoot 0.0401032 -10.61
ltoes -16.6347
68
root 4.35694 17.7084 11.025 -176.573 1.06056 -180.861
lowerback 1.93376 -1.89638 -3.30083
upperback 0.992672 -2.50669 3.16749
thorax 0.223899 -1.25122 5.16136
lowerneck -18.9819 -2.24475 -10.0029
upperneck 22.0793 -0.614246 3.79017
head 10.2658 -0.510228 2.95567
rclavicle 3.08116e-015 8.74653e-015
rhumerus -35.7322 -13.1532 -78.5941
rradius 24.8384
rwrist -6.1667
rhand -11.9732 19.652
rfingers 7.12502
rthumb 14.0828 -9.85078
lclavicle 3.08116e-015 8.74653e-015
lhumerus -32.5783 12.2889 82.0106
lradius 32.2862
lwrist -8.93224
lhand -0.290607 37.3948
lfingers 7.12502
lthumb 25.312 65.7352
rfemur -27.2121 1.08937 20.4944
rtibia 24.0804
rfoot 0.781866 -0.802388
rtoes 9.59305
lfemur 8.25878 -2.37618 -23.1378
ltibia 33.1328
lfoot 3.07516 -10.6893
ltoes -13.9369
69
root 4.38025 17.7248 10.8432 -176.732 1.12844 -180.74
lowerback 2.08025 -1.79875 -3.31866
upperback 0.896988 -2.3795 3.18835
thorax 0.0304195 -1.18137 5.19956
lowerneck -18.6226 -2.2595 -9.8226
upperneck 21.9579 -0.683786 3.6401
head 10.1589 -0.540521 2.85897
rclavicle -2.19657e-014 3.10104e-014
rhumerus -36.0541 -13.0478 -78.5216
rradius 24.8654
rwrist -6.1628
rhand -12.2467 19.3461
rfingers 7.12502
rthumb 13.8192 -10.1748
lclavicle -2.19657e-014 3.10104e-014
lhumerus -33.1602 12.1855 82.0473
lradius 32.0321
lwrist -8.89226
lhand -0.0375551 37.4706
lfingers 7.12502
lthumb 25.5544 65.7765
rfemur -26.6091 1.32435 20.68
rtibia 24.5223
rfoot 0.349529 -0.598805
rtoes 12.2512
lfemur 7.18801 -2.11256 -22.7251
ltibia 35.5592
lfoot 6.15091 -10.7769
ltoes -9.55017
70
root 4.41075 17.7427 10.6663 -176.695 1.00642 -180.196
lowerback 2.0058 -1.8947 -3.03301
upperback 0.905571 -2.48434 3.4701
thorax 0.0936606 -1.22858 5.32984
lowerneck -19.0576 -2.25615 -9.92626
upperneck 22.1703 -0.606893 3.66239
head 10.3125 -0.515665 2.90035
rclavicle 2.0773e-014 -1.19271e-014
rhumerus -35.9262 -12.5437 -78.5284
rradius 24.8137
rwrist -6.00052
rhand -12.4772 18.9325
rfingers 7.12502
rthumb 13.5971 -10.6034
lclavicle 2.0773e-014 -1.19271e-014
lhumerus -33.5561 12.4394 82.2259
lradius 32.0014
lwrist -8.81423
lhand 0.374533 37.6662
lfingers 7.12502
lthumb 25.9491 65.9149
rfemur -26.0672 1.50568 21.3765
rtibia 24.6959
rfoot 0.144011 -0.458955
rtoes 15.6593
lfemur 5.7548 -1.72894 -21.7042
ltibia 38.177
lfoot 8.68479 -11.3346
ltoes -8.10719
71
root 4.44116 17.7492 10.4971 -176.65 1.10165 -179.622
lowerback 1.76301 -2.0188 -2.60875
upperback 1.10496 -2.62295 3.68355
thorax 0.441794 -1.29965 5.29912
lowerneck -19.8102 -2.19854 -10.097
upperneck 22.3531 -0.444846 3.80235
head 10.5081 -0.448416 3.00797
rclavicle 2.34566e-014 4.77083e-015
rhumerus -35.4602 -11.6606 -78.9648
rradius 25.0446
rwrist -6.41629
rhand -12.2485 18.4021
rfingers 7.12502
rthumb 13.8175 -11.1189
lclavicle 2.34566e-014 4.77083e-015
lhumerus -33.6486 12.8962 82.309
lradius 32.0323
lwrist -8.8744
lhand 0.546255 37.8907
lfingers 7.12502
lthumb 26.1135 66.1152
rfemur -25.4495 1.72556 22.184
rtibia 24.5973
rfoot 0.213464 -0.262345
rtoes 17.9268
lfemur 4.20894 -1.16226 -20.7422
ltibia 40.9946
lfoot 10.5513 -12.1652
ltoes -9.29788
72
root 4.46215 17.7552 10.3238 -176.655 1.16098 -178.794
lowerback 1.53501 -2.02866 -1.78695
upperback 1.18993 -2.60362 3.87249
thorax 0.625675 -1.27973 5.01888
lowerneck -19.4995 -2.1828 -10.0024
upperneck 21.9618 -0.468496 3.66376
head 10.3087 -0.465026 2.92819
rclavicle -4.44284e-014 -2.62396e-014
rhumerus -35.2839 -11.1529 -79.2585
rradius 25.2442
rwrist -6.83628
rhand -11.9167 18.2453
rfingers 7.12502
rthumb 14.1372 -11.2537
lclavicle -4.44284e-014 -2.62396e-014
lhumerus -33.8319 12.7319 82.4442
lradius 31.8455
lwrist -8.86871
lhand 0.580398 37.7564
lfingers 7.12502
lthumb 26.1462 65.9761
rfemur -24.6113 1.95198 23.2211
rtibia 24.3787
rfoot -0.00382948 -0.259866
rtoes 19.2042
lfemur 2.91545 -0.914214 -19.5913
ltibia 43.7466
lfoot 12.4177 -12.441
ltoes -7.54919
73
root 4.48048 17.7682 10.1574 -176.692 1.10881 -178.165
lowerback 1.51029 -1.98956 -1.30055
upperback 1.12396 -2.52443 4.10044
thorax 0.552465 -1.22631 4.98109
lowerneck -18.9419 -2.20447 -9.72586
upperneck 21.6281 -0.530586 3.22357
head 10.0888 -0.515216 2.70752
rclavicle -2.59414e-014 -6.75868e-014
rhumerus -35.2839 -11.0401 -79.127
rradius 25.1587
rwrist -6.80169
rhand -11.8607 18.7581
rfingers 7.12502
rthumb 14.1912 -10.7372
lclavicle -2.59414e-014 -6.75868e-014
lhumerus -34.2403 12.0327 82.8734
lradius 31.7866
lwrist -8.60196
lhand 0.904875 37.7578
lfingers 7.12502
lthumb 26.4568 65.9311
rfemur -23.7639 2.12083 24.0205
rtibia 24.1628
rfoot -0.432635 -0.384048
rtoes 18.7186
lfemur 1.88567 -1.16161 -18.6234
ltibia 46.4427
lfoot 14.5068 -11.7231
ltoes 0.725887
74
root 4.50567 17.7933 9.99607 -176.768 1.11585 -178.063
lowerback 1.58637 -1.96771 -1.41091
upperback 1.13421 -2.49128 4.18531
thorax 0.526211 -1.20854 5.13512
lowerneck -19.0859 -2.2323 -9.75337
upperneck 21.7457 -0.534307 3.1983
head 10.1589 -0.523529 2.70512
rclavicle 2.78299e-015 -3.57812e-014
rhumerus -35.1292 -10.9281 -79.0798
rradius 25.1093
rwrist -6.72267
rhand -12.9412 20.6325
rfingers 7.12502
rthumb 13.1499 -8.93288
lclavicle 2.78299e-015 -3.57812e-014
lhumerus -34.5998 11.3493 83.3261
lradius 32.0196
lwrist -8.32647
lhand 1.14975 37.6317
lfingers 7.12502
lthumb 26.6912 65.7695
rfemur -22.8837 2.2159 24.289
rtibia 23.823
rfoot -0.742058 -0.416852
rtoes 17.7045
lfemur 0.104883 -0.534538 -18.2668
ltibia 48.8876
lfoot 16.0985 -12.7354
ltoes -1.8926
75
root 4.5319 17.8135 9.8329 -176.968 1.22998 -177.483
lowerback 1.77613 -1.87746 -0.889931
upperback 1.14761 -2.34617 4.25961
thorax 0.400262 -1.12374 4.9224
lowerneck -19.2364 -2.30765 -10.0033
upperneck 22.0735 -0.638146 3.61568
head 10.3142 -0.54494 2.88932
rclavicle -4.67144e-015 3.97569e-014
rhumerus -35.2571 -10.7989 -79.2153
rradius 25.36
rwrist -6.82431
rhand -14.6779 22.8124
rfingers 7.12502
rthumb 11.4754 -6.85355
lclavicle -4.67144e-015 3.97569e-014
lhumerus -35.0089 10.7124 83.5372
lradius 32.1224
lwrist -8.43905
lhand 1.08325 37.0759
lfingers 7.12502
lthumb 26.6275 65.2234
rfemur -21.8314 2.4675 25.0398
rtibia 23.5266
rfoot -1.07912 -0.483331
rtoes 18.3952
lfemur -1.05342 -0.070469 -17.3244
ltibia 51.1344
lfoot 17.2917 -12.7409
ltoes 0.406714
76
root 4.55319 17.8372 9.67246 -177.3 1.38398 -176.72
lowerback 2.06731 -1.72358 -0.153662
upperback 1.20174 -2.10131 4.34645
thorax 0.245389 -0.984942 4.60133
lowerneck -19.2494 -2.42001 -9.83839
upperneck 22.2682 -0.852473 3.68743
head 10.402 -0.62131 2.86178
rclavicle -2.83268e-014 -2.38542e-015
rhumerus -35.4623 -10.8925 -79.2365
rradius 25.5983
rwrist -7.03931
rhand -13.8355 22.1948
rfingers 7.12502
rthumb 12.2878 -7.42418
lclavicle -2.83268e-014 -2.38542e-015
lhumerus -35.2143 9.94531 83.7488
lradius 32.0142
lwrist -8.53071
lhand 1.14786 36.8239
lfingers 7.12502
lthumb 26.6894 64.962
rfemur -20.6197 2.66574 25.9836
rtibia 23.2154
rfoot -1.3145 -0.497844
rtoes 19.225
lfemur -2.10265 0.534763 -16.2204
ltibia 53.2748
lfoot 17.6946 -13.0395
ltoes -0.0700838
77
root 4.56748 17.8474 9.51958 -177.458 1.43901 -176.642
lowerback 2.16616 -1.67547 -0.172841
upperback 1.30297 -2.03511 4.34204
thorax 0.289238 -0.951931 4.60811
lowerneck -19.1791 -2.41339 -9.8173
upperneck 22.0322 -0.906227 3.80575
head 10.306 -0.63119 2.88749
rclavicle -8.44835e-015 -1.59028e-014
rhumerus -35.2696 -10.7754 -79.321
rradius 25.8043
rwrist -7.43364
rhand -10.3952 18.2177
rfingers 7.12502
rthumb 15.603 -11.173
lclavicle -8.44835e-015 -1.59028e-014
lhumerus -35.2263 9.44148 84.0174
lradius 32.0674
lwrist -8.36146
lhand 1.89171 37.6785
lfingers 7.12502
lthumb 27.401 65.7061
rfemur -19.729 2.4985 26.1923
rtibia 22.9301
rfoot -1.60826 -0.216897
rtoes 18.0069
lfemur -3.56046 1.17787 -16.0468
ltibia 55.3498
lfoot 17.207 -13.7366
ltoes -2.92024
78
root 4.58087 17.8538 9.3663 -177.383 1.42193 -176.232
lowerback 2.09813 -1.65078 0.272376
upperback 1.28924 -1.98696 4.36034
thorax 0.293804 -0.921015 4.37239
lowerneck -18.7854 -2.38078 -9.88129
upperneck 21.6488 -0.942429 3.97955
head 10.0966 -0.630612 2.94628
rclavicle -1.81888e-014 2.22639e-014
rhumerus -35.1727 -10.2179 -79.7897
rradius 26.3531
rwrist -8.09961
rhand -13.5235 22.8565
rfingers 7.12502
rthumb 12.5885 -6.74423
lclavicle -1.81888e-014 2.22639e-014
lhumerus -35.3935 9.04857 84.1178
lradius 32.191
lwrist -8.57649
lhand 3.11689 38.697
lfingers 7.12502
lthumb 28.5722 66.5335
rfemur -19.1579 2.30028 26.7468
rtibia 22.7881
rfoot -2.05222 0.210039
rtoes 14.884
lfemur -5.04877 1.40027 -15.4523
ltibia 57.44
lfoot 16.212 -13.4103
ltoes -1.88483
79
root 4.5988 17.863 9.21052 -177.455 1.41735 -175.934
lowerback 2.13337 -1.54293 0.646846
upperback 1.25109 -1.83415 4.2776
thorax 0.208053 -0.840776 4.07351
lowerneck -18.7651 -2.46869 -9.88818
upperneck 21.9009 -1.09602 4.16786
head 10.1959 -0.678518 2.99963
rclavicle 1.07344e-014 1.43125e-014
rhumerus -35.2596 -9.95583 -80.1484
rradius 26.7719
rwrist -8.52025
rhand -11.624 19.5774
rfingers 7.12502
rthumb 14.4193 -9.90168
lclavicle 1.07344e-014 1.43125e-014
lhumerus -35.5468 8.50466 84.1714
lradius 32.1574
lwrist -9.18969
lhand 3.61159 38.1934
lfingers 7.12502
lthumb 29.0448 65.9494
rfemur -18.4239 2.31464 27.1612
rtibia 22.6914
rfoot -2.3787 0.458217
rtoes 11.7076
lfemur -6.10108 1.27222 -14.8871
ltibia 59.5253
lfoot 14.7873 -12.1329
ltoes 1.22195
80
root 4.61799 17.8602 9.05951 -177.548 1.56597 -175.914
lowerback 2.17427 -1.44782 0.465068
upperback 1.27056 -1.70522 4.3619
thorax 0.204975 -0.775832 4.26283
lowerneck -19.095 -2.54124 -10.351
upperneck 22.2839 -1.09186 4.50656
head 10.4022 -0.676136 3.2095
rclavicle 1.3418e-014 -8.18993e-014
rhumerus -35.0858 -9.50856 -80.1707
rradius 26.9514
rwrist -8.64067
rhand -11.0028 17.8665
rfingers 7.12502
rthumb 15.0178 -11.5689
lclavicle 1.3418e-014 -8.18993e-014
lhumerus -35.7229 8.26571 84.5385
lradius 32.2444
lwrist -9.44335
lhand 3.01652 36.9266
lfingers 7.12502
lthumb 28.4763 64.7792
rfemur -17.6316 2.60536 27.2593
rtibia 22.4542
rfoot -2.8646 0.291906
rtoes 12.4537
lfemur -7.35964 1.83884 -14.7742
ltibia 61.3287
lfoot 12.5259 -11.877
ltoes -4.20073
81
root 4.6279 17.8707 8.9092 -177.606 1.83003 -175.404
lowerback 2.16144 -1.38012 0.719516
upperback 1.33946 -1.57913 4.68047
thorax 0.276092 -0.69881 4.44802
lowerneck -19.1734 -2.55494 -10.8541
upperneck 22.2639 -1.00166 4.7123
head 10.4081 -0.653168 3.38032
rclavicle -1.5207e-014 1.59028e-015
rhumerus -34.7146 -8.98503 -80.0504
rradius 27.4074
rwrist -9.3429
rhand -10.2325 15.218
rfingers 7.12502
rthumb 15.7597 -14.1604
lclavicle -1.5207e-014 1.59028e-015
lhumerus -35.9715 8.46989 84.9406
lradius 32.5116
lwrist -9.62817
lhand 2.70913 36.2963
lfingers 7.12502
lthumb 28.1826 64.1977
rfemur -16.8324 2.69833 27.8983
rtibia 22.1827
rfoot -3.51394 0.173384
rtoes 17.1474
lfemur -8.6839 2.14156 -14.055
ltibia 63.1448
lfoot 10.9124 -10.6652
ltoes -0.417846
